<svg width="316" height="61" viewBox="0 0 316 61" fill="none" xmlns="http://www.w3.org/2000/svg">
<path d="M8.48 44.096C8.48 45.2053 8.096 46.144 7.328 46.912C6.60267 47.6373 5.68533 48 4.576 48C3.50933 48 2.61333 47.6373 1.888 46.912C1.16267 46.144 0.8 45.2053 0.8 44.096V4.544C0.8 3.43466 1.16267 2.51733 1.888 1.792C2.656 1.024 3.59467 0.639999 4.704 0.639999C5.77067 0.639999 6.66667 1.024 7.392 1.792C8.11733 2.51733 8.48 3.43466 8.48 4.544V44.096ZM24.642 44.096C24.642 45.2053 24.2793 46.144 23.554 46.912C22.8287 47.6373 21.9113 48 20.802 48C19.6927 48 18.7753 47.6373 18.05 46.912C17.3247 46.144 16.962 45.2053 16.962 44.096V17.664C16.962 16.5547 17.3247 15.6373 18.05 14.912C18.7753 14.144 19.6927 13.76 20.802 13.76C21.9113 13.76 22.8287 14.144 23.554 14.912C24.2793 15.6373 24.642 16.5547 24.642 17.664V44.096ZM20.738 9.6C19.2873 9.6 18.2633 9.36533 17.666 8.896C17.0687 8.42666 16.77 7.59466 16.77 6.4V5.184C16.77 3.98933 17.09 3.15733 17.73 2.688C18.37 2.21866 19.394 1.984 20.802 1.984C22.2953 1.984 23.3407 2.21866 23.938 2.688C24.5353 3.15733 24.834 3.98933 24.834 5.184V6.4C24.834 7.63733 24.514 8.49066 23.874 8.96C23.2767 9.38667 22.2313 9.6 20.738 9.6ZM58.839 13.824C59.863 13.824 60.7163 14.1653 61.399 14.848C62.0817 15.488 62.423 16.2987 62.423 17.28C62.423 17.792 62.2523 18.432 61.911 19.2L49.943 45.568C49.6443 46.2933 49.1963 46.8693 48.599 47.296C48.0443 47.7227 47.4043 47.9573 46.679 48L46.103 48.064C45.3777 48.064 44.695 47.8507 44.055 47.424C43.4577 46.9547 42.9883 46.336 42.647 45.568L30.743 19.2C30.4443 18.5173 30.295 17.8347 30.295 17.152C30.295 16.2987 30.6577 15.5307 31.383 14.848C32.1083 14.1227 33.0043 13.76 34.071 13.76C34.8817 13.76 35.6283 13.9733 36.311 14.4C36.9937 14.8267 37.5057 15.424 37.847 16.192L46.679 36.416L55.447 16.256C55.7883 15.4453 56.2577 14.8267 56.855 14.4C57.4523 13.9733 58.1137 13.7813 58.839 13.824ZM98.88 30.08C98.8373 31.104 98.432 31.936 97.664 32.576C96.896 33.216 96 33.536 94.976 33.536H73.856C74.368 36.0533 75.5413 38.0373 77.376 39.488C79.2107 40.896 81.28 41.6 83.584 41.6C85.3333 41.6 86.6987 41.4507 87.68 41.152C88.6613 40.8107 89.4293 40.4693 89.984 40.128C90.5813 39.744 90.9867 39.488 91.2 39.36C91.968 38.976 92.6933 38.784 93.376 38.784C94.272 38.784 95.04 39.104 95.68 39.744C96.32 40.384 96.64 41.1307 96.64 41.984C96.64 43.136 96.0427 44.1813 94.848 45.12C93.6533 46.1013 92.0533 46.9333 90.048 47.616C88.0427 48.2987 86.016 48.64 83.968 48.64C80.384 48.64 77.248 47.8933 74.56 46.4C71.9147 44.9067 69.8667 42.8587 68.416 40.256C66.9653 37.6107 66.24 34.6453 66.24 31.36C66.24 27.6907 67.008 24.4693 68.544 21.696C70.08 18.9227 72.1067 16.8107 74.624 15.36C77.1413 13.8667 79.8293 13.12 82.688 13.12C85.504 13.12 88.1493 13.888 90.624 15.424C93.1413 16.96 95.1467 19.0293 96.64 21.632C98.1333 24.2347 98.88 27.0507 98.88 30.08ZM82.688 20.16C77.7387 20.16 74.816 22.4853 73.92 27.136H90.688V26.688C90.5173 24.896 89.6427 23.36 88.064 22.08C86.4853 20.8 84.6933 20.16 82.688 20.16ZM123.589 13.12C127.941 13.12 130.949 14.4213 132.613 17.024C134.277 19.584 135.109 23.1467 135.109 27.712V44.096C135.109 45.2053 134.746 46.144 134.021 46.912C133.296 47.6373 132.378 48 131.269 48C130.16 48 129.242 47.6373 128.517 46.912C127.792 46.144 127.429 45.2053 127.429 44.096V27.712C127.429 25.3653 126.938 23.5307 125.957 22.208C124.976 20.8427 123.29 20.16 120.901 20.16C118.426 20.16 116.485 20.8853 115.077 22.336C113.669 23.744 112.965 25.536 112.965 27.712V44.096C112.965 45.2053 112.602 46.144 111.877 46.912C111.152 47.6373 110.234 48 109.125 48C108.016 48 107.098 47.6373 106.373 46.912C105.648 46.144 105.285 45.2053 105.285 44.096V17.664C105.285 16.5547 105.648 15.6373 106.373 14.912C107.098 14.144 108.016 13.76 109.125 13.76C110.234 13.76 111.152 14.144 111.877 14.912C112.602 15.6373 112.965 16.5547 112.965 17.664V18.752C114.117 17.216 115.61 15.8933 117.445 14.784C119.322 13.6747 121.37 13.12 123.589 13.12Z" fill="#3E3E3E"/>
<path d="M159.922 40.768C160.519 40.768 161.053 41.0667 161.522 41.664C162.034 42.2187 162.29 42.9653 162.29 43.904C162.29 45.056 161.65 46.0373 160.37 46.848C159.133 47.616 157.725 48 156.146 48C153.501 48 151.261 47.4453 149.426 46.336C147.634 45.184 146.738 42.7733 146.738 39.104V21.44H143.794C142.77 21.44 141.917 21.0987 141.234 20.416C140.551 19.7333 140.21 18.88 140.21 17.856C140.21 16.8747 140.551 16.064 141.234 15.424C141.917 14.7413 142.77 14.4 143.794 14.4H146.738V10.304C146.738 9.19467 147.101 8.27733 147.826 7.552C148.594 6.784 149.533 6.4 150.642 6.4C151.709 6.4 152.605 6.784 153.33 7.552C154.055 8.27733 154.418 9.19467 154.418 10.304V14.4H158.962C159.986 14.4 160.839 14.7413 161.522 15.424C162.205 16.1067 162.546 16.96 162.546 17.984C162.546 18.9653 162.205 19.7973 161.522 20.48C160.839 21.12 159.986 21.44 158.962 21.44H154.418V38.784C154.418 39.68 154.653 40.3413 155.122 40.768C155.591 41.152 156.231 41.344 157.042 41.344C157.383 41.344 157.853 41.2587 158.45 41.088C158.962 40.8747 159.453 40.768 159.922 40.768ZM202.181 30.912C202.181 34.3253 201.413 37.3973 199.877 40.128C198.341 42.816 196.229 44.9067 193.541 46.4C190.896 47.8933 187.973 48.64 184.773 48.64C181.53 48.64 178.586 47.8933 175.941 46.4C173.296 44.9067 171.205 42.816 169.669 40.128C168.133 37.3973 167.365 34.3253 167.365 30.912C167.365 27.4987 168.133 24.448 169.669 21.76C171.205 19.0293 173.296 16.9173 175.941 15.424C178.586 13.888 181.53 13.12 184.773 13.12C187.973 13.12 190.896 13.888 193.541 15.424C196.229 16.9173 198.341 19.0293 199.877 21.76C201.413 24.448 202.181 27.4987 202.181 30.912ZM194.501 30.912C194.501 28.8213 194.053 26.9653 193.157 25.344C192.304 23.68 191.13 22.4 189.637 21.504C188.186 20.608 186.565 20.16 184.773 20.16C182.981 20.16 181.338 20.608 179.845 21.504C178.394 22.4 177.221 23.68 176.325 25.344C175.472 26.9653 175.045 28.8213 175.045 30.912C175.045 33.0027 175.472 34.8587 176.325 36.48C177.221 38.1013 178.394 39.36 179.845 40.256C181.338 41.152 182.981 41.6 184.773 41.6C186.565 41.6 188.186 41.152 189.637 40.256C191.13 39.36 192.304 38.1013 193.157 36.48C194.053 34.8587 194.501 33.0027 194.501 30.912ZM226.326 13.12C229.27 13.12 231.936 13.888 234.326 15.424C236.715 16.9173 238.592 19.008 239.958 21.696C241.366 24.384 242.069 27.4347 242.069 30.848C242.069 34.2613 241.387 37.3333 240.022 40.064C238.656 42.752 236.779 44.864 234.39 46.4C232.043 47.8933 229.44 48.64 226.582 48.64C224.534 48.64 222.592 48.2347 220.758 47.424C218.966 46.5707 217.472 45.5467 216.278 44.352V44.736C216.278 45.8453 215.915 46.784 215.19 47.552C214.464 48.2773 213.547 48.64 212.438 48.64C211.328 48.64 210.411 48.2773 209.686 47.552C208.96 46.8267 208.598 45.888 208.598 44.736V4.544C208.598 3.43466 208.96 2.51733 209.686 1.792C210.411 1.024 211.328 0.639999 212.438 0.639999C213.547 0.639999 214.464 1.024 215.19 1.792C215.915 2.51733 216.278 3.43466 216.278 4.544V17.92C217.302 16.64 218.731 15.5307 220.566 14.592C222.4 13.6107 224.32 13.12 226.326 13.12ZM225.366 41.6C228.096 41.6 230.336 40.576 232.086 38.528C233.835 36.48 234.71 33.92 234.71 30.848C234.71 27.776 233.835 25.2373 232.086 23.232C230.379 21.184 228.139 20.16 225.366 20.16C222.592 20.16 220.331 21.184 218.582 23.232C216.832 25.2373 215.958 27.776 215.958 30.848C215.958 33.92 216.832 36.48 218.582 38.528C220.331 40.576 222.592 41.6 225.366 41.6ZM273.881 13.76C274.99 13.76 275.907 14.144 276.632 14.912C277.358 15.6373 277.721 16.5547 277.721 17.664V33.92C277.721 38.528 276.441 42.1333 273.881 44.736C271.363 47.3387 267.758 48.64 263.065 48.64C258.371 48.64 254.766 47.3387 252.249 44.736C249.731 42.1333 248.473 38.528 248.473 33.92V17.664C248.473 16.5547 248.835 15.6373 249.561 14.912C250.286 14.144 251.203 13.76 252.312 13.76C253.422 13.76 254.339 14.144 255.065 14.912C255.79 15.6373 256.153 16.5547 256.153 17.664V33.92C256.153 36.5227 256.729 38.464 257.881 39.744C259.033 40.9813 260.761 41.6 263.065 41.6C265.411 41.6 267.161 40.9813 268.313 39.744C269.465 38.464 270.041 36.5227 270.041 33.92V17.664C270.041 16.5547 270.403 15.6373 271.129 14.912C271.854 14.144 272.771 13.76 273.881 13.76ZM311.443 13.76C312.552 13.76 313.47 14.144 314.195 14.912C314.92 15.6373 315.283 16.5547 315.283 17.664V44.864C315.283 50.4107 313.79 54.4427 310.803 56.96C307.816 59.52 303.827 60.8 298.835 60.8C297.384 60.8 295.891 60.672 294.355 60.416C292.862 60.2027 291.646 59.904 290.707 59.52C288.616 58.624 287.571 57.3867 287.571 55.808C287.571 55.5093 287.635 55.168 287.763 54.784C288.019 53.8453 288.446 53.12 289.043 52.608C289.683 52.1387 290.366 51.904 291.091 51.904C291.518 51.904 291.923 51.968 292.307 52.096C292.606 52.224 293.118 52.4373 293.843 52.736C294.611 53.0347 295.4 53.2693 296.211 53.44C297.064 53.6533 297.939 53.76 298.835 53.76C301.864 53.76 304.083 53.0987 305.491 51.776C306.942 50.496 307.667 48.2773 307.667 45.12V44.48C305.448 47.2533 301.992 48.64 297.299 48.64C295.08 48.64 293.118 48.128 291.411 47.104C289.704 46.0373 288.382 44.5867 287.443 42.752C286.504 40.8747 286.035 38.7413 286.035 36.352V17.664C286.035 16.5547 286.398 15.6373 287.123 14.912C287.848 14.144 288.766 13.76 289.875 13.76C290.984 13.76 291.902 14.144 292.627 14.912C293.352 15.6373 293.715 16.5547 293.715 17.664V34.048C293.715 36.736 294.291 38.6773 295.443 39.872C296.638 41.024 298.366 41.6 300.627 41.6C302.846 41.6 304.552 40.96 305.747 39.68C306.984 38.3573 307.603 36.48 307.603 34.048V17.664C307.603 16.5547 307.966 15.6373 308.691 14.912C309.416 14.144 310.334 13.76 311.443 13.76Z" fill="#62E697"/>
</svg>
